<svg xmlns="http://www.w3.org/2000/svg" width="40" height="40" viewBox="0 0 24 24" aria-hidden="true" role="img">
  <path fill="#25D366" d="M12 2C6.48 2 2 6.48 2 12c0 1.73.44 3.35 1.21 4.78L2 22l5.33-1.17A9.93 9.93 0 0 0 12 22c5.52 0 10-4.48 10-10S17.52 2 12 2"></path>
  <path fill="#fff" d="M17.47 14.38c-.3-.15-1.76-.87-2.03-.97c-.27-.1-.47-.15-.67.15c-.2.3-.77.97-.94 1.17c-.17.2-.35.22-.64.07c-.3-.15-1.26-.46-2.4-1.48c-.88-.79-1.48-1.76-1.65-2.06c-.17-.3-.02-.46.13-.61c.13-.13.3-.35.45-.52c.15-.17.2-.3.3-.5c.1-.2.05-.37-.03-.52c-.08-.15-.67-1.62-.92-2.22c-.25-.58-.48-.5-.67-.51l-.57-.01c-.2 0-.52.07-.8.37c-.27.3-1.04 1.02-1.04 2.49c0 1.47 1.07 2.88 1.22 3.08c.15.2 2.1 3.2 5.08 4.49c.71.31 1.26.49 1.69.63c.72.23 1.36.2 1.87.12c.57-.09 1.76-.72 2.01-1.41c.25-.7.25-1.29.17-1.41c-.08-.13-.27-.2-.57-.35z"></path>
</svg>
