<svg xmlns="http://www.w3.org/2000/svg" width="40" height="40" viewBox="0 0 24 24" aria-hidden="true" role="img">
  <!-- círculo/balao dourado -->
  <path fill="#d4af37" d="M12 2C6.477 2 2 6.477 2 12c0 1.657.402 3.218 1.105 4.58L2 22l5.52-1.085A9.955 9.955 0 0012 22c5.523 0 10-4.477 10-10S17.523 2 12 2z"></path>
  <!-- telefone branco (ícone interno) -->
  <path fill="#ffffff" d="M17.472 14.382c-.297-.149-1.758-.867-2.03-.967-.273-.099-.472-.149-.672.15-.199.297-.769.967-.943 1.165-.173.199-.347.223-.644.074-.297-.149-1.255-.463-2.39-1.475-.885-.788-1.48-1.761-1.653-2.058-.173-.297-.018-.458.13-.606.134-.133.297-.347.446-.52.151-.173.199-.298.299-.497.099-.199.05-.373-.025-.522-.075-.148-.672-1.621-.921-2.223-.242-.584-.487-.504-.672-.513l-.573-.01c-.199 0-.522.074-.796.373-.273.298-1.04 1.016-1.04 2.479 0 1.462 1.064 2.877 1.213 3.074.149.199 2.095 3.2 5.076 4.487.709.306 1.261.489 1.692.626.712.226 1.36.194 1.872.118.571-.085 1.758-.719 2.006-1.413.248-.695.248-1.29.173-1.413-.074-.123-.272-.199-.57-.348z"></path>
</svg>
